<?xml version="1.0" encoding="utf-8"?>
<!-- Generator: Adobe Illustrator 23.0.1, SVG Export Plug-In . SVG Version: 6.00 Build 0)  -->
<svg version="1.1" id="Layer_1" xmlns="http://www.w3.org/2000/svg" xmlns:xlink="http://www.w3.org/1999/xlink" x="0px" y="0px"
	 viewBox="0 0 1677.9 1036" style="enable-background:new 0 0 1677.9 1036;" xml:space="preserve">
<style type="text/css">
	.st0{fill:#BCBEC0;}
	.st1{fill:#995D25;}
	.st2{fill:#C49A6C;}
	.st3{fill:#FFFFFF;}
	.st4{enable-background:new    ;}
</style>
<g>
	<g>
		<polygon class="st0" points="119.3,415 192.7,400.1 188.4,403 255.3,282.7 260.5,273.3 265.3,282.9 322.4,394.6 312.4,394.4 
			432.7,184.2 437.4,176 442.5,184 574.9,395.4 565.5,395.1 797.6,81.6 802.1,75.5 806.7,81.5 1043.6,395 1034.2,395.4 1166.7,184 
			1171.7,176 1176.4,184.2 1295.5,390.7 1285.6,390.8 1346.4,285 1351.3,276.5 1356.3,285 1424.3,402.9 1420,400.1 1485,413.1 
			1418.7,411.4 1416,411.3 1414.4,408.6 1346.4,290.7 1356.3,290.7 1295.5,396.4 1290.6,405 1285.6,396.4 1166.6,189.9 
			1176.3,190.1 1043.9,401.5 1039.5,408.5 1034.5,401.9 797.6,88.4 806.7,88.4 574.7,401.8 569.7,408.6 565.2,401.5 432.8,190.1 
			442.6,189.9 322.3,400.1 317.1,409.2 312.3,399.8 255.2,288 265.2,288.2 198.4,408.5 196.9,411.3 194.1,411.4 		"/>
	</g>
	<polygon class="st1" points="268,270.9 370.8,270.9 317.4,365.6 	"/>
	<polygon class="st2" points="447.4,171.2 612.6,223.5 572.5,371.7 	"/>
	<polygon class="st1" points="781.5,80.1 612.6,223.5 572.5,371.7 	"/>
	<polygon class="st1" points="1344.1,270.9 1237.1,270.9 1290.6,365.6 	"/>
	<polygon class="st2" points="1160.6,171.2 995.4,223.5 1035.5,371.7 	"/>
	<polygon class="st1" points="826.5,80.1 995.4,223.5 1035.5,371.7 	"/>
	<rect x="234.7" y="371.7" class="st3" width="14.6" height="14.6"/>
	<rect x="256.6" y="371.7" class="st3" width="14.6" height="14.6"/>
	<rect x="234.7" y="391.2" class="st3" width="14.6" height="14.6"/>
	<rect x="256.6" y="391.2" class="st3" width="14.6" height="14.6"/>
	<rect x="1338.6" y="371.7" class="st3" width="14.6" height="14.6"/>
	<rect x="1360.4" y="371.7" class="st3" width="14.6" height="14.6"/>
	<rect x="1338.6" y="391.2" class="st3" width="14.6" height="14.6"/>
	<rect x="1360.4" y="391.2" class="st3" width="14.6" height="14.6"/>
	<rect x="410.9" y="355.9" class="st3" width="21.6" height="21.6"/>
	<rect x="443.3" y="355.9" class="st3" width="21.6" height="21.6"/>
	<rect x="410.9" y="384.7" class="st3" width="21.6" height="21.6"/>
	<rect x="443.3" y="384.7" class="st3" width="21.6" height="21.6"/>
	<rect x="1149.1" y="355.9" class="st3" width="21.6" height="21.6"/>
	<rect x="1181.6" y="355.9" class="st3" width="21.6" height="21.6"/>
	<rect x="1149.1" y="384.7" class="st3" width="21.6" height="21.6"/>
	<rect x="1181.6" y="384.7" class="st3" width="21.6" height="21.6"/>
	<rect x="763.8" y="321.9" class="st3" width="31.9" height="36.2"/>
	<rect x="811.6" y="321.9" class="st3" width="31.9" height="36.2"/>
	<rect x="763.8" y="370.2" class="st3" width="31.9" height="36.2"/>
	<rect x="811.6" y="370.2" class="st3" width="31.9" height="36.2"/>
	<path class="st1" d="M843.4,313.9c0-23.1-17.8-41.8-39.8-41.8s-39.8,18.7-39.8,41.8H843.4z"/>
	<rect x="112" y="439.8" class="st1" width="1385.1" height="14.6"/>
</g>
<g class="st4">
	<path class="st3" d="M112.9,747.6v-11.1l3.4-0.2c14.5-1,23-3,25.7-6.2c2.7-3.2,4-12.8,4-28.9V528.9c0-16.2-1.3-25.8-4-28.9
		c-2.7-3.1-11.3-5.1-25.7-6.1l-3.4-0.4v-11.1h84.7l27.7-0.7l12.9-0.2c41.4,0,73.2,11,95.4,33c22,22,33.1,53.6,33.1,94.8
		c0,42.6-11.4,76.4-34.1,101.1c-22.7,24.8-53.7,37.2-92.9,37.2H112.9z M183.7,494.5v206.9c0,16.1,1.6,25.3,4.8,27.6
		c6.4,4.4,18.9,6.6,37.4,6.6c33.6,0,58.9-10.1,75.7-30.4c16.8-20.3,25.2-50.6,25.2-91.2c0-42.2-9-72.7-27.1-91.4
		c-18.1-18.8-47.4-28.1-87.9-28.1H183.7z"/>
	<path class="st3" d="M519.9,630.1L459.3,530c-12.8-21-19.9-32.2-21.3-33.4c-1.4-1.3-7.6-2.1-18.5-2.6l-3.6-0.3v-11.1h102.8v11.1
		h-3.6c-17,0-25.6,1.9-25.8,5.8c-0.2,3.4,4.7,13.6,14.7,30.5l49.7,83.6l51.8-83.3c10.3-16.6,15.4-26.7,15.4-30.5
		c0-4-8.3-6.1-24.9-6.1h-3.2v-11.1h71.7v11.1l-3.4,0.3c-11.6,0.7-18.3,1.8-20.2,3.4c-1.9,1.6-9.1,12.4-21.8,32.6l-61.8,100.1v71.1
		c0,16.2,1.3,25.9,3.9,28.9c2.6,3,11.2,5.1,25.9,6.2l3.4,0.2v11.1H486.7v-11.1l3.2-0.2c14.8-1.1,23.5-3.1,26.1-6.2
		c2.6-3,3.9-12.7,3.9-28.9V630.1z"/>
	<path class="st3" d="M892.8,747.6H701.3v-11.1l3.4-0.2c14.5-1,23-3,25.7-6.2c2.7-3.2,4-12.8,4-28.9V528.9c0-16.2-1.3-25.8-4-28.9
		c-2.7-3.1-11.3-5.1-25.7-6.1l-3.4-0.4v-11.1h103.9v11.1l-3.4,0.4c-14.6,1-23.2,3-25.8,6.1c-2.6,3.1-3.9,12.7-3.9,28.9v172.3
		c0,15.9,1.2,25,3.6,27.4c2.4,2.4,11.6,3.6,27.6,3.6h27.4c21.6,0,34-1.2,37.2-3.7c3.1-2.4,5.2-12.6,6-30.4l0.2-3.6h18.8V747.6z"/>
	<path class="st3" d="M994,666l-15.3,35.2c-5.9,13.9-8.8,23.2-8.8,27.8c0,5,7.7,7.5,23.1,7.5h2.9v11.1H927v-11.1l3.8-0.2
		c10.3-0.5,16.4-1.8,18.4-3.9c2-2.1,7-12.5,15-31.3l93.5-222.2h12.5l93,223.4c7.3,16,12.4,25.5,15.4,28.6c3,3,8.8,4.8,17.6,5.3
		l4.1,0.2v11.1h-98.4v-11.1h3.2c16.7,0,25.1-2.4,25.1-7.2c0-7-2.5-16.4-7.5-28.1l-14.8-35.3H994z M999.8,651.4h101.6l-50.4-120.7
		L999.8,651.4z"/>
	<path class="st3" d="M1446.9,751.2l-160.2-222.2v172.2c0,16.2,1.3,25.9,3.9,28.9c2.6,3,11.3,5.1,26,6.2l3.2,0.2v11.1h-82.9v-11.1
		l3.2-0.2c14.7-1.1,23.3-3.1,26-6.2c2.6-3,3.9-12.7,3.9-28.9V528.9c0-16.3-1.3-25.9-3.9-29c-2.6-3-11.2-5-25.8-6l-3.4-0.4v-11.1h60
		L1444,688.3V528.9c0-16.2-1.3-25.8-4-28.9c-2.7-3.1-11.3-5.1-25.9-6.1l-3.2-0.4v-11.1h82.6v11.1l-3.4,0.4c-14.6,1-23.2,3-25.8,6.1
		c-2.6,3.1-3.9,12.7-3.9,28.9v222.3H1446.9z"/>
</g>
<g class="st4">
	<path class="st3" d="M174.4,854.5c0,0.1-0.2,0.4-0.8,0.9c-2.4,2.2-6.2,4.2-11.6,5.9c-3.7,1.2-9.1,1.9-16,2
		c-3.2,0.1-6.7-0.4-10.4-1.4c-5-1.3-9.1-3.4-12.1-6.2c-5.2-4.7-7.8-12-7.8-21.6c0-5.5,1.5-10.9,4.4-16.2c2.4-4.4,6.1-8.1,10.9-11.1
		c6.3-3.9,13.5-5.9,21.5-5.9c4.4,0,8.9,0.5,13.6,1.6c2.4,0.5,4.7,1.3,6.6,2.4c0.1,0.1,0.2,0.3,0.2,0.5c-0.4,2.6-0.7,5-1.1,7.3
		c-0.2,1.2-0.4,2.6-0.6,4.3c-0.1,0.7-0.3,1-0.7,0.8c-0.5,0-0.8-0.2-0.8-0.5c0-0.5-0.1-1.2-0.3-1.9c-0.4-1-0.7-1.8-1-2.3
		c-0.4-0.7-1-1.5-1.8-2.2c-4.4-3.9-9.3-5.9-14.9-5.9c-7.8,0-13.8,2.3-18,6.8c-5,5.4-7.5,12.3-7.5,20.7c0,9.2,2.6,16.3,7.9,21.4
		c3.8,3.7,9.4,5.6,16.7,5.6c3.5,0,7.2-0.8,11-2.4c2.3-1,4.4-2.5,6.1-4.7c0.4-0.5,0.9-1.4,1.4-2.9c0.5-1.3,0.7-2.3,0.8-2.8
		c0.1-0.5,0.3-0.8,0.8-0.8c0.3,0,0.5,0.1,0.6,0.4c0.2,0.7,0.5,1.6,1,2.7C172.7,849.7,173.4,851.5,174.4,854.5z"/>
	<path class="st3" d="M271.3,830.7c0,9-2.3,16.3-7,22.1c-3.2,4-7.6,6.8-13.1,8.6c-3.2,1-7,1.6-11.5,1.6c-7,0-12.6-1-16.8-3
		c-2.8-1.3-5.1-3-7-5.1c-4.6-5.1-6.9-12.5-6.9-22.3c0-4.1,0.6-7.9,1.7-11.5c1.3-4,3.4-7.6,6.3-10.7c2.9-3.1,6.7-5.6,11.5-7.3
		c3.7-1.3,7.7-2,12-2c6.4,0,11.5,0.8,15.3,2.5c4,1.7,7.1,4.1,9.4,7C269.3,815.8,271.3,822.5,271.3,830.7z M261.1,832.9
		c0-4.6-0.4-8.3-1.2-11.1c-1-3.4-2.6-6.6-4.9-9.5c-1.9-2.4-4.4-4.3-7.3-5.6c-3.2-1.4-6.4-2.1-9.6-2.1c-3.9,0-6.9,0.7-9.1,2.1
		c-3.1,2-5.4,4.9-6.9,8.6c-1.7,4.1-2.6,9.1-2.6,15c0,8.7,1.5,15.5,4.5,20.6c1.8,3,4.5,5.5,8.2,7.3c2.8,1.4,6,2.1,9.5,2.1
		c3.7,0,7.2-1.2,10.5-3.5c2.5-1.8,4.7-4.8,6.5-9.1C260.3,844,261.1,839.1,261.1,832.9z"/>
	<path class="st3" d="M373.6,804.1c0,0.4-0.2,0.6-0.6,0.6h-6.3c-0.7,0-1,0.4-1,1.2c0,0.2,0,4.2-0.1,11.8c-0.1,7.7-0.1,11.8-0.1,12.4
		c0,0.6-0.1,6-0.2,16c-0.1,10-0.2,15.3-0.2,15.8c0,1.2-0.2,1.9-0.7,2.1c-0.9,0.4-1.7,0.2-2.2-0.5c-8.2-9.9-16.6-20.1-25.3-30.6
		c-4.4-5.8-9.6-12.2-15.8-19.5c-0.4-0.4-0.7-0.3-0.9,0.4c-0.1,0.4-0.3,5.4-0.7,15c-0.4,9.8-0.5,16-0.5,18.7c0,7.9,0.8,11.9,2.5,11.9
		h5.5c0.4,0,0.5,0.1,0.5,0.4v2.2c0,0.2-0.1,0.4-0.4,0.4h-18.4c-0.4,0-0.6-0.1-0.6-0.3V860c0-0.3,0.2-0.5,0.6-0.5h5.5
		c0.5,0,0.8-0.2,0.8-0.6v-6.4c0-1.8,0.3-8.7,0.8-20.9c0.6-12.2,0.8-18.4,0.8-18.6c0-5.5-2.1-8.2-6.3-8.2h-3c-0.2,0-0.4-0.1-0.4-0.4
		v-2.1c0-0.3,0.1-0.4,0.4-0.4h15.8c0.5,0,0.9,0.2,1.2,0.7c0.3,0.5,2.9,3.9,7.9,10.1c4.9,6.3,7.7,9.7,8.3,10.4
		c6.3,7.6,13,15.4,20.1,23.5c0.1,0.1,0.2,0.1,0.4,0.1c0.3,0,0.4-0.4,0.4-1.3c0-0.6,0-5.1,0-13.7c0-8.6,0-13.3-0.1-14.1
		c-0.4-8.5-1.6-12.8-3.4-12.8h-5.5c-0.4,0-0.7-0.1-0.7-0.4v-2.1c0-0.3,0.2-0.4,0.6-0.4h20.4c0.4,0,0.7,0.1,0.7,0.4V804.1z"/>
	<path class="st3" d="M448.3,846.3c0,4.5-1.8,8.4-5.4,11.7c-2,1.9-4.2,3.2-6.5,3.9c-2.5,0.8-5.8,1.2-9.9,1.2
		c-5.9,0-11.6-1.4-16.9-4.2c-0.4-0.2-0.7-0.8-0.7-1.8c0-0.2,0-2,0-5.5c0-3.4,0-5.3,0-5.6c0-0.4,0.3-0.5,0.9-0.5h1.8
		c0.5,0,0.8,0.2,0.9,0.5c0,1.1,0.1,2.2,0.3,3.2c0.5,2.7,1.9,5,4.2,7c2.3,2,5.5,3,9.6,3c5.6,0,9.4-1.8,11.5-5.4
		c0.9-1.6,1.3-3.7,1.3-6.4c0-2.4-0.8-4.3-2.5-5.7c-1.6-1.8-4.8-3.5-9.5-5c-5.3-1.7-9.5-3.9-12.7-6.6c-3.2-2.7-4.8-6.8-4.8-12.3
		c0-5,2.2-9.4,6.7-12.9c3.5-2.7,8-4.1,13.5-4.1c6.1,0,10.9,1.3,14.3,4c0.5,0.4,0.7,0.8,0.8,1.2c0.3,2,0.5,5,0.5,9.2
		c0,0.6-0.1,0.9-0.4,0.9H443c-0.3,0-0.5-0.2-0.6-0.5c-0.2-1-0.6-2.2-0.9-3.4c-0.6-1.8-1.7-3.3-3.3-4.4c-2.8-1.9-6.3-2.8-10.7-2.8
		c-3.3,0-5.9,0.9-7.7,2.6c-2,2-3,4.6-2.9,7.8c0.1,2.1,1,4.2,2.9,6.3c1,1,4.4,2.7,10.3,5c3.5,1.4,6.1,2.5,7.7,3.4
		c2.7,1.4,4.9,3,6.7,4.8C447.1,837.6,448.3,841.4,448.3,846.3z"/>
	<path class="st3" d="M539.3,802.2c-0.2,1.4-0.8,3.8-1.7,7.3c-0.1,0.4-0.5,0.7-1.1,0.7c-0.7,0-1.1-0.3-1.4-0.8
		c-0.6-1.3-1.6-2.1-3-2.5c-1-0.3-3.6-0.6-7.8-0.9c-4-0.4-6.7-0.5-8.1-0.5c-0.4,0-0.6,0.2-0.7,0.6c-0.4,7.7-0.5,21.5-0.5,41.3
		c0,8.1,0.7,12.2,2.1,12.2h7.2c0.2,0,0.3,0.1,0.3,0.4v2.1c0,0.3-0.1,0.4-0.3,0.4h-25.9c-0.3,0-0.4-0.1-0.4-0.4v-2
		c0-0.3,0.1-0.5,0.4-0.5h6.5c0.5,0,0.8-0.3,0.8-1c0-0.1,0-1.6-0.1-4.6c-0.1-3-0.1-4.7-0.1-5.3c0-0.5,0.1-5.6,0.2-15.3
		c0.1-9.7,0.2-14.7,0.2-15.2c0-8.6-0.5-12.8-1.5-12.8c-6.9,0-12.4,0.6-16.7,1.8c-1,0.3-2,0.9-2.9,1.9c-1,1-1.6,1.5-2,1.6
		c-0.9,0.1-1.5,0-1.7-0.4c-0.2-0.3-0.1-0.8,0.3-1.5c0.8-2.6,1.6-5,2.3-7.2c0.1-0.4,0.4-0.5,1-0.4c0.5,0.1,4.2,0.2,11.1,0.5
		c7.3,0.3,12.3,0.4,14.9,0.4c8.7,0,16.8-0.1,24.4-0.4c0.9,0,1.7-0.1,2.5-0.2c0.7-0.1,1-0.2,1-0.2
		C539.1,801.5,539.3,801.7,539.3,802.2z"/>
	<path class="st3" d="M633.4,861.9c0,0.4-0.1,0.5-0.4,0.5h-15.9c-0.7,0-1.3-0.2-1.7-0.5c-1.6-1.3-5.5-6-11.6-14.1
		c-2.8-3.6-5.2-7.6-7.3-12c-0.2-0.5-0.4-0.7-0.7-0.7c-1.6-0.1-3.7-0.3-6.1-0.6c-0.5-0.1-0.8,0.2-0.8,0.7c0-0.5,0,0.9,0,4.2
		c0,3.3,0,6.7,0,10.3c0,6.5,0.7,9.8,2.1,9.8h7.3c0.3,0,0.5,0.2,0.5,0.5v2c0,0.3-0.1,0.4-0.4,0.4h-24.9c-0.4,0-0.6-0.1-0.6-0.4v-1.9
		c0-0.4,0.2-0.6,0.5-0.6h5.2c0.5,0,0.8-0.4,0.8-1.3v-23.8V817c-0.1-8.1-0.6-12.1-1.6-12.1h-5.1c-0.3,0-0.4-0.1-0.4-0.4v-2
		c0-0.3,0.1-0.5,0.4-0.5l14.1-0.4c4.7-0.1,8.3-0.2,10.7-0.2c2.6,0,4.7,0.1,6.4,0.4c4.4,0.6,8,2.2,10.9,4.7c3.3,2.8,4.9,6.3,4.9,10.5
		c0,4.7-1.6,8.7-4.8,11.9c-1.9,1.9-4.7,3.5-8.6,4.9c-0.2,0.1-0.3,0.3-0.3,0.5c2.6,4.7,5.7,8.9,9.3,12.8c2.8,3,4.6,4.9,5.6,5.9
		c2,2,3.7,3.5,5.2,4.5c2,1.4,4.2,2.1,6.7,2.1c0.6,0,0.9,0.2,0.9,0.6V861.9z M609.9,819.3c0-4-1.3-7.2-3.9-9.7
		c-3.5-3.3-8.5-4.9-15.2-4.9c-1,0-1.6,0.3-1.7,0.9c0,8.2-0.1,13.4-0.2,15.5v9.5c0,0.5,0.2,0.8,0.7,0.8c1.1,0.2,2.8,0.2,5,0.2
		c3-0.1,5.2-0.3,6.6-0.8C606.9,829.3,609.9,825.4,609.9,819.3z"/>
	<path class="st3" d="M730.8,804.1c0,0.4-0.1,0.6-0.4,0.6h-1.8c-2.8,0-4.2,0-4.3,0.1c0-0.3-0.1,1.5-0.2,5.4
		c-0.1,4.2-0.2,8.2-0.2,12.1c-0.1,5.5-0.1,10.4,0,14.8c0.2,9.3-2.1,16.2-6.8,20.5c-3.8,3.5-9.1,5.2-15.9,5.2
		c-6.4,0-11.6-0.6-15.5-1.8c-5.1-1.6-8.6-4-10.3-7.3c-1.5-2.9-2.4-7.1-2.6-12.6c-0.1-3.7-0.2-12.3-0.2-26c0-7-0.6-10.4-1.9-10.4
		h-5.1c-0.3,0-0.4-0.1-0.4-0.4v-1.9c0-0.4,0.1-0.6,0.4-0.6h23.1c0.4,0,0.6,0.1,0.6,0.4v1.9c0,0.4-0.1,0.7-0.4,0.7h-5.3
		c-0.4,0-0.7,0.2-0.8,0.7c-0.2,1-0.3,10.2-0.3,27.5c0,6.6,0.2,10.9,0.5,13c0.7,4.1,2.7,7.3,6,9.5c3.2,2.2,7.6,3.3,13.2,3.3
		c5.6,0,10.1-1.8,13.5-5.4c1.3-1.4,2.4-3.7,3.2-6.8c0.7-2.7,1-5.3,1-7.9c0-10.3-0.1-17.1-0.2-20.3c-0.4-9.2-1.3-13.7-2.9-13.7h-5.9
		c-0.3,0-0.4,0-0.5-0.1s-0.1-0.2-0.1-0.3v-2.1c0-0.1,0-0.3,0.1-0.3c0.1-0.1,0.2-0.1,0.4-0.1h19.2c0.3,0,0.4,0,0.5,0.1
		c0,0.1,0.1,0.2,0.1,0.3V804.1z"/>
	<path class="st3" d="M824.5,854.5c0,0.1-0.2,0.4-0.8,0.9c-2.4,2.2-6.2,4.2-11.6,5.9c-3.7,1.2-9.1,1.9-16,2
		c-3.2,0.1-6.7-0.4-10.4-1.4c-5-1.3-9.1-3.4-12.1-6.2c-5.2-4.7-7.8-12-7.8-21.6c0-5.5,1.5-10.9,4.4-16.2c2.4-4.4,6.1-8.1,10.9-11.1
		c6.3-3.9,13.5-5.9,21.5-5.9c4.4,0,8.9,0.5,13.6,1.6c2.4,0.5,4.7,1.3,6.6,2.4c0.1,0.1,0.2,0.3,0.2,0.5c-0.4,2.6-0.7,5-1.1,7.3
		c-0.2,1.2-0.4,2.6-0.6,4.3c-0.1,0.7-0.3,1-0.7,0.8c-0.5,0-0.8-0.2-0.8-0.5c0-0.5-0.1-1.2-0.3-1.9c-0.4-1-0.7-1.8-1-2.3
		c-0.4-0.7-1-1.5-1.8-2.2c-4.4-3.9-9.3-5.9-14.9-5.9c-7.8,0-13.8,2.3-18,6.8c-5,5.4-7.5,12.3-7.5,20.7c0,9.2,2.6,16.3,7.9,21.4
		c3.8,3.7,9.4,5.6,16.7,5.6c3.5,0,7.2-0.8,11-2.4c2.3-1,4.4-2.5,6.1-4.7c0.4-0.5,0.8-1.4,1.4-2.9c0.5-1.3,0.7-2.3,0.8-2.8
		c0.1-0.5,0.3-0.8,0.8-0.8c0.3,0,0.5,0.1,0.6,0.4c0.2,0.7,0.5,1.6,1,2.7C822.8,849.7,823.5,851.5,824.5,854.5z"/>
	<path class="st3" d="M914.3,802.2c-0.2,1.4-0.8,3.8-1.7,7.3c-0.1,0.4-0.5,0.7-1.1,0.7c-0.7,0-1.1-0.3-1.4-0.8
		c-0.6-1.3-1.6-2.1-3-2.5c-1-0.3-3.6-0.6-7.8-0.9c-4-0.4-6.7-0.5-8.1-0.5c-0.4,0-0.6,0.2-0.7,0.6c-0.4,7.7-0.5,21.5-0.5,41.3
		c0,8.1,0.7,12.2,2.1,12.2h7.2c0.2,0,0.3,0.1,0.3,0.4v2.1c0,0.3-0.1,0.4-0.3,0.4h-25.9c-0.3,0-0.4-0.1-0.4-0.4v-2
		c0-0.3,0.1-0.5,0.4-0.5h6.5c0.5,0,0.8-0.3,0.8-1c0-0.1,0-1.6-0.1-4.6c-0.1-3-0.1-4.7-0.1-5.3c0-0.5,0.1-5.6,0.2-15.3
		c0.1-9.7,0.2-14.7,0.2-15.2c0-8.6-0.5-12.8-1.5-12.8c-6.9,0-12.4,0.6-16.7,1.8c-1,0.3-2,0.9-2.9,1.9c-1,1-1.6,1.5-2,1.6
		c-0.9,0.1-1.5,0-1.7-0.4c-0.2-0.3-0.1-0.8,0.3-1.5c0.8-2.6,1.6-5,2.3-7.2c0.1-0.4,0.4-0.5,1-0.4c0.5,0.1,4.2,0.2,11.1,0.5
		c7.3,0.3,12.3,0.4,14.9,0.4c8.7,0,16.8-0.1,24.4-0.4c0.9,0,1.7-0.1,2.5-0.2c0.7-0.1,1-0.2,1-0.2C914,801.5,914.3,801.7,914.3,802.2
		z"/>
	<path class="st3" d="M973.1,862.1c0,0.2-0.1,0.4-0.4,0.4h-22.9c-0.4,0-0.6-0.1-0.6-0.4v-1.9c0-0.4,0.2-0.6,0.5-0.6h5.1
		c0.4,0,0.6-0.4,0.6-1.3c0-0.3,0-7.8,0-22.5c0-14.7,0-22.2,0-22.6c0-5.6-0.6-8.4-1.7-8.4H949c-0.4,0-0.7-0.1-0.7-0.4v-2.1
		c0-0.2,0.1-0.4,0.4-0.4h23c0.3,0,0.4,0.1,0.4,0.4v2.2c0,0.2-0.2,0.4-0.5,0.4h-5.4c-0.6,0-0.9,0.2-0.9,0.6c0,0.2,0,6.9,0,20.2
		c0,13.3,0,20.4,0,21.3c0,4.2,0,6.7,0.1,7.4c0.2,3.6,0.8,5.3,1.8,5.3h5.3c0.3,0,0.4,0.1,0.4,0.4V862.1z"/>
	<path class="st3" d="M1071.3,830.7c0,9-2.3,16.3-7,22.1c-3.2,4-7.6,6.8-13.1,8.6c-3.2,1-7,1.6-11.5,1.6c-7,0-12.6-1-16.8-3
		c-2.8-1.3-5.1-3-7-5.1c-4.6-5.1-6.9-12.5-6.9-22.3c0-4.1,0.6-7.9,1.7-11.5c1.3-4,3.4-7.6,6.3-10.7c2.9-3.1,6.7-5.6,11.5-7.3
		c3.7-1.3,7.7-2,12-2c6.4,0,11.5,0.8,15.3,2.5c4,1.7,7.1,4.1,9.4,7C1069.3,815.8,1071.3,822.5,1071.3,830.7z M1061.1,832.9
		c0-4.6-0.4-8.3-1.2-11.1c-1-3.4-2.6-6.6-4.9-9.5c-1.9-2.4-4.4-4.3-7.3-5.6c-3.2-1.4-6.4-2.1-9.6-2.1c-3.9,0-6.9,0.7-9.1,2.1
		c-3.1,2-5.4,4.9-6.9,8.6c-1.7,4.1-2.6,9.1-2.6,15c0,8.7,1.5,15.5,4.5,20.6c1.8,3,4.5,5.5,8.2,7.3c2.8,1.4,6,2.1,9.5,2.1
		c3.7,0,7.2-1.2,10.5-3.5c2.5-1.8,4.7-4.8,6.5-9.1C1060.3,844,1061.1,839.1,1061.1,832.9z"/>
	<path class="st3" d="M1173.6,804.1c0,0.4-0.2,0.6-0.6,0.6h-6.3c-0.7,0-1,0.4-1,1.2c0,0.2,0,4.2-0.1,11.8s-0.1,11.8-0.1,12.4
		c0,0.6-0.1,6-0.2,16c-0.1,10-0.2,15.3-0.2,15.8c0,1.2-0.2,1.9-0.7,2.1c-0.9,0.4-1.7,0.2-2.2-0.5c-8.2-9.9-16.6-20.1-25.3-30.6
		c-4.4-5.8-9.6-12.2-15.8-19.5c-0.4-0.4-0.7-0.3-0.9,0.4c-0.1,0.4-0.3,5.4-0.7,15c-0.4,9.8-0.5,16-0.5,18.7c0,7.9,0.8,11.9,2.5,11.9
		h5.5c0.4,0,0.5,0.1,0.5,0.4v2.2c0,0.2-0.1,0.4-0.4,0.4h-18.4c-0.4,0-0.6-0.1-0.6-0.3V860c0-0.3,0.2-0.5,0.6-0.5h5.5
		c0.5,0,0.8-0.2,0.8-0.6v-6.4c0-1.8,0.3-8.7,0.8-20.9c0.6-12.2,0.8-18.4,0.8-18.6c0-5.5-2.1-8.2-6.3-8.2h-3c-0.2,0-0.4-0.1-0.4-0.4
		v-2.1c0-0.3,0.1-0.4,0.4-0.4h15.8c0.5,0,0.9,0.2,1.2,0.7c0.3,0.5,2.9,3.9,7.9,10.1s7.7,9.7,8.3,10.4c6.3,7.6,13,15.4,20.1,23.5
		c0.1,0.1,0.2,0.1,0.4,0.1c0.3,0,0.4-0.4,0.4-1.3c0-0.6,0-5.1,0-13.7c0-8.6,0-13.3-0.1-14.1c-0.4-8.5-1.6-12.8-3.4-12.8h-5.5
		c-0.4,0-0.7-0.1-0.7-0.4v-2.1c0-0.3,0.2-0.4,0.6-0.4h20.4c0.4,0,0.7,0.1,0.7,0.4V804.1z"/>
	<path class="st3" d="M1307.2,854.9c0,0.4-0.6,1.6-1.7,3.6c0,0.1-0.6,1.1-1.6,3c-0.3,0.6-0.6,0.9-1,0.9h-45.3
		c-0.4,0-0.5-0.1-0.5-0.4v-2c0-0.3,0.1-0.5,0.4-0.5h6c0.5,0,0.8-0.3,0.8-0.9c0,0,0-1.2-0.1-3.6c-0.1-2.4-0.1-4.6-0.1-6.4
		c0-2.8,0.1-8.8,0.2-18c0.1-9.2,0.2-14.7,0.2-16.4c0-6.4-0.6-9.5-1.8-9.5h-4.2c-0.5,0-0.7-0.2-0.7-0.6v-1.8c0-0.4,0.2-0.6,0.6-0.6
		h25.4c0.3,0,0.4,0.1,0.4,0.4v2.1c0,0.3-0.1,0.4-0.4,0.4h-8.4c-0.5,0-0.8,0.2-0.9,0.6c-0.1,0.4-0.2,7.6-0.4,21.5
		c-0.2,12.9-0.2,20.4-0.2,22.4c0,6.9,0.8,10.4,2.4,10.4c7.2,0,12.6-0.2,16.3-0.5c4.2-0.3,8.4-1.7,12.6-4.2c0.7-0.4,1.2-0.6,1.5-0.6
		C1307,854.5,1307.2,854.7,1307.2,854.9z"/>
	<path class="st3" d="M1394.1,802.2c-0.2,1.4-0.8,3.8-1.7,7.3c-0.1,0.4-0.5,0.7-1.1,0.7c-0.7,0-1.1-0.3-1.4-0.8
		c-0.6-1.3-1.6-2.1-3-2.5c-1-0.3-3.6-0.6-7.8-0.9c-4-0.4-6.7-0.5-8.1-0.5c-0.4,0-0.6,0.2-0.7,0.6c-0.4,7.7-0.5,21.5-0.5,41.3
		c0,8.1,0.7,12.2,2.1,12.2h7.2c0.2,0,0.3,0.1,0.3,0.4v2.1c0,0.3-0.1,0.4-0.3,0.4h-25.9c-0.3,0-0.4-0.1-0.4-0.4v-2
		c0-0.3,0.1-0.5,0.4-0.5h6.5c0.5,0,0.8-0.3,0.8-1c0-0.1,0-1.6-0.1-4.6c-0.1-3-0.1-4.7-0.1-5.3c0-0.5,0.1-5.6,0.2-15.3
		c0.1-9.7,0.2-14.7,0.2-15.2c0-8.6-0.5-12.8-1.5-12.8c-6.9,0-12.4,0.6-16.7,1.8c-1,0.3-2,0.9-2.9,1.9c-1,1-1.6,1.5-2,1.6
		c-0.9,0.1-1.5,0-1.7-0.4c-0.2-0.3-0.1-0.8,0.3-1.5c0.8-2.6,1.6-5,2.3-7.2c0.1-0.4,0.4-0.5,1-0.4c0.5,0.1,4.2,0.2,11.1,0.5
		c7.3,0.3,12.3,0.4,14.9,0.4c8.7,0,16.8-0.1,24.4-0.4c0.9,0,1.7-0.1,2.5-0.2c0.7-0.1,1-0.2,1-0.2
		C1393.8,801.5,1394.1,801.7,1394.1,802.2z"/>
	<path class="st3" d="M1487.3,831.6c0,12.4-4.6,21.3-13.7,26.9c-3.3,2-7,3.3-11.3,3.9c-2.5,0.4-6.3,0.5-11.4,0.5
		c-2.3,0-5.3-0.1-8.9-0.2s-6.6-0.2-9-0.2h-5.2c-0.3,0-0.4,0-0.5-0.1c0-0.1-0.1-0.2-0.1-0.3v-2c0-0.3,0.2-0.5,0.5-0.5h6.6
		c0.5,0,0.7-0.4,0.7-1.3c0-0.4,0-4.3,0-11.5c0-7.2,0-11.2,0-11.8c0-0.7,0-4.2-0.1-10.5c-0.1-6.3-0.1-9.7-0.1-10.2
		c0-6.2-0.6-9.4-1.7-9.4h-6.8c-0.3,0-0.4-0.1-0.4-0.4v-2.1c0-0.1,0-0.3,0.1-0.3c0.1-0.1,0.2-0.1,0.4-0.1h29.8c4.3,0,8.3,0.6,12,1.7
		c3.7,1.1,7.2,3.2,10.5,6.2C1484.6,814.7,1487.3,822,1487.3,831.6z M1477.6,836.9c0-4.5-0.4-8.2-1.3-11.2c-1-3.4-2.7-6.8-5.3-10.2
		c-2.7-3.6-6.2-6.3-10.4-8.1c-4-1.8-7.9-2.6-11.6-2.6c-1.3,0-2.3,0.1-3.2,0.3c-0.7,0.1-1,0.7-1,1.7c0,0.4,0,4.1,0,10.9
		c0,6.8,0,10.7,0,11.6v17.9c0,7.7,0.5,11.7,1.5,11.9c1.9,0.4,5.7,0.7,11.3,0.7c6.2,0,10.8-1.5,13.8-4.6
		C1475.5,850.8,1477.6,844.8,1477.6,836.9z"/>
</g>
<rect x="112" y="881.6" class="st2" width="1380.5" height="6.1"/>
<rect x="112" y="774.5" class="st2" width="1380.5" height="6.1"/>
</svg>
